<mxfile host="www.draw.io" modified="2023-04-10T16:37:40.346Z" agent="Mozilla/5.0 (Windows NT 10.0; Win64; x64) AppleWebKit/537.36 (KHTML, like Gecko) Chrome/111.0.0.0 Safari/537.36" etag="8ba6ZtNU7AYeBtt2c8uX" version="21.1.5" type="device">
  <diagram name="Страница 1" id="nvHRbx4KRjpOqdb_E22I">
    <mxGraphModel dx="1195" dy="663" grid="0" gridSize="10" guides="1" tooltips="1" connect="1" arrows="1" fold="1" page="1" pageScale="1" pageWidth="827" pageHeight="1169" math="0" shadow="0">
      <root>
        <mxCell id="0" />
        <mxCell id="1" parent="0" />
        <mxCell id="gIhtm3OILwZ725tfP_vh-38" value="" style="rounded=0;whiteSpace=wrap;html=1;fillColor=none;" vertex="1" parent="1">
          <mxGeometry x="130" y="10" width="450" height="570" as="geometry" />
        </mxCell>
        <mxCell id="gIhtm3OILwZ725tfP_vh-20" style="rounded=0;orthogonalLoop=1;jettySize=auto;html=1;" edge="1" parent="1" source="gIhtm3OILwZ725tfP_vh-1" target="gIhtm3OILwZ725tfP_vh-7">
          <mxGeometry relative="1" as="geometry" />
        </mxCell>
        <mxCell id="gIhtm3OILwZ725tfP_vh-21" style="rounded=0;orthogonalLoop=1;jettySize=auto;html=1;" edge="1" parent="1" source="gIhtm3OILwZ725tfP_vh-1" target="gIhtm3OILwZ725tfP_vh-8">
          <mxGeometry relative="1" as="geometry" />
        </mxCell>
        <mxCell id="gIhtm3OILwZ725tfP_vh-22" style="rounded=0;orthogonalLoop=1;jettySize=auto;html=1;entryX=0;entryY=0.5;entryDx=0;entryDy=0;" edge="1" parent="1" source="gIhtm3OILwZ725tfP_vh-1" target="gIhtm3OILwZ725tfP_vh-9">
          <mxGeometry relative="1" as="geometry" />
        </mxCell>
        <mxCell id="gIhtm3OILwZ725tfP_vh-23" style="rounded=0;orthogonalLoop=1;jettySize=auto;html=1;" edge="1" parent="1" source="gIhtm3OILwZ725tfP_vh-1" target="gIhtm3OILwZ725tfP_vh-11">
          <mxGeometry relative="1" as="geometry" />
        </mxCell>
        <mxCell id="gIhtm3OILwZ725tfP_vh-24" style="rounded=0;orthogonalLoop=1;jettySize=auto;html=1;" edge="1" parent="1" source="gIhtm3OILwZ725tfP_vh-1" target="gIhtm3OILwZ725tfP_vh-10">
          <mxGeometry relative="1" as="geometry" />
        </mxCell>
        <mxCell id="gIhtm3OILwZ725tfP_vh-1" value="&#xa;&lt;span style=&quot;font-size:14.0pt;line-height:150%;&#xa;font-family:&amp;quot;Times New Roman&amp;quot;,serif;mso-fareast-font-family:Calibri;mso-fareast-theme-font:&#xa;minor-latin;mso-bidi-theme-font:minor-bidi;mso-ansi-language:RU;mso-fareast-language:&#xa;EN-US;mso-bidi-language:AR-SA&quot;&gt;Гость&lt;/span&gt;&#xa;&#xa;&#xa;&#xa;" style="shape=umlActor;verticalLabelPosition=bottom;verticalAlign=top;html=1;outlineConnect=0;" vertex="1" parent="1">
          <mxGeometry x="80" y="90" width="30" height="60" as="geometry" />
        </mxCell>
        <mxCell id="gIhtm3OILwZ725tfP_vh-29" style="edgeStyle=orthogonalEdgeStyle;rounded=0;orthogonalLoop=1;jettySize=auto;html=1;" edge="1" parent="1" source="gIhtm3OILwZ725tfP_vh-3" target="gIhtm3OILwZ725tfP_vh-4">
          <mxGeometry relative="1" as="geometry" />
        </mxCell>
        <mxCell id="gIhtm3OILwZ725tfP_vh-30" style="rounded=0;orthogonalLoop=1;jettySize=auto;html=1;" edge="1" parent="1" source="gIhtm3OILwZ725tfP_vh-3" target="gIhtm3OILwZ725tfP_vh-16">
          <mxGeometry relative="1" as="geometry" />
        </mxCell>
        <mxCell id="gIhtm3OILwZ725tfP_vh-31" style="rounded=0;orthogonalLoop=1;jettySize=auto;html=1;" edge="1" parent="1" source="gIhtm3OILwZ725tfP_vh-3" target="gIhtm3OILwZ725tfP_vh-15">
          <mxGeometry relative="1" as="geometry" />
        </mxCell>
        <mxCell id="gIhtm3OILwZ725tfP_vh-32" style="rounded=0;orthogonalLoop=1;jettySize=auto;html=1;" edge="1" parent="1" source="gIhtm3OILwZ725tfP_vh-3" target="gIhtm3OILwZ725tfP_vh-17">
          <mxGeometry relative="1" as="geometry" />
        </mxCell>
        <mxCell id="gIhtm3OILwZ725tfP_vh-3" value="&#xa;&lt;span style=&quot;font-size:14.0pt;line-height:150%;&#xa;font-family:&amp;quot;Times New Roman&amp;quot;,serif;mso-fareast-font-family:Calibri;mso-fareast-theme-font:&#xa;minor-latin;mso-bidi-theme-font:minor-bidi;mso-ansi-language:RU;mso-fareast-language:&#xa;EN-US;mso-bidi-language:AR-SA&quot;&gt;Менеджер&lt;/span&gt;&#xa;&#xa;&#xa;&#xa;" style="shape=umlActor;verticalLabelPosition=bottom;verticalAlign=top;html=1;outlineConnect=0;" vertex="1" parent="1">
          <mxGeometry x="80" y="370" width="30" height="60" as="geometry" />
        </mxCell>
        <mxCell id="gIhtm3OILwZ725tfP_vh-25" style="edgeStyle=orthogonalEdgeStyle;rounded=0;orthogonalLoop=1;jettySize=auto;html=1;" edge="1" parent="1" source="gIhtm3OILwZ725tfP_vh-4" target="gIhtm3OILwZ725tfP_vh-1">
          <mxGeometry relative="1" as="geometry" />
        </mxCell>
        <mxCell id="gIhtm3OILwZ725tfP_vh-26" style="rounded=0;orthogonalLoop=1;jettySize=auto;html=1;" edge="1" parent="1" source="gIhtm3OILwZ725tfP_vh-4" target="gIhtm3OILwZ725tfP_vh-13">
          <mxGeometry relative="1" as="geometry" />
        </mxCell>
        <mxCell id="gIhtm3OILwZ725tfP_vh-27" style="rounded=0;orthogonalLoop=1;jettySize=auto;html=1;entryX=0;entryY=0.5;entryDx=0;entryDy=0;" edge="1" parent="1" source="gIhtm3OILwZ725tfP_vh-4" target="gIhtm3OILwZ725tfP_vh-14">
          <mxGeometry relative="1" as="geometry" />
        </mxCell>
        <mxCell id="gIhtm3OILwZ725tfP_vh-28" style="rounded=0;orthogonalLoop=1;jettySize=auto;html=1;" edge="1" parent="1" source="gIhtm3OILwZ725tfP_vh-4" target="gIhtm3OILwZ725tfP_vh-12">
          <mxGeometry relative="1" as="geometry" />
        </mxCell>
        <mxCell id="gIhtm3OILwZ725tfP_vh-4" value="&#xa;&lt;span style=&quot;font-size:14.0pt;line-height:150%;&#xa;font-family:&amp;quot;Times New Roman&amp;quot;,serif;mso-fareast-font-family:Calibri;mso-fareast-theme-font:&#xa;minor-latin;mso-bidi-theme-font:minor-bidi;mso-ansi-language:RU;mso-fareast-language:&#xa;EN-US;mso-bidi-language:AR-SA&quot;&gt;Пользователь &lt;/span&gt;&#xa;&#xa;&#xa;&#xa;" style="shape=umlActor;verticalLabelPosition=bottom;verticalAlign=top;html=1;outlineConnect=0;" vertex="1" parent="1">
          <mxGeometry x="80" y="220" width="30" height="60" as="geometry" />
        </mxCell>
        <mxCell id="gIhtm3OILwZ725tfP_vh-33" style="edgeStyle=orthogonalEdgeStyle;rounded=0;orthogonalLoop=1;jettySize=auto;html=1;" edge="1" parent="1" source="gIhtm3OILwZ725tfP_vh-5" target="gIhtm3OILwZ725tfP_vh-3">
          <mxGeometry relative="1" as="geometry" />
        </mxCell>
        <mxCell id="gIhtm3OILwZ725tfP_vh-34" style="rounded=0;orthogonalLoop=1;jettySize=auto;html=1;entryX=0;entryY=0.5;entryDx=0;entryDy=0;" edge="1" parent="1" source="gIhtm3OILwZ725tfP_vh-5" target="gIhtm3OILwZ725tfP_vh-19">
          <mxGeometry relative="1" as="geometry" />
        </mxCell>
        <mxCell id="gIhtm3OILwZ725tfP_vh-35" style="rounded=0;orthogonalLoop=1;jettySize=auto;html=1;" edge="1" parent="1" source="gIhtm3OILwZ725tfP_vh-5" target="gIhtm3OILwZ725tfP_vh-18">
          <mxGeometry relative="1" as="geometry" />
        </mxCell>
        <mxCell id="gIhtm3OILwZ725tfP_vh-5" value="&#xa;&lt;span style=&quot;font-size:14.0pt;line-height:150%;&#xa;font-family:&amp;quot;Times New Roman&amp;quot;,serif;mso-fareast-font-family:Calibri;mso-fareast-theme-font:&#xa;minor-latin;mso-bidi-theme-font:minor-bidi;mso-ansi-language:RU;mso-fareast-language:&#xa;EN-US;mso-bidi-language:AR-SA&quot;&gt;Администратор&lt;/span&gt;&#xa;&#xa;&#xa;&#xa;" style="shape=umlActor;verticalLabelPosition=bottom;verticalAlign=top;html=1;outlineConnect=0;" vertex="1" parent="1">
          <mxGeometry x="80" y="510" width="30" height="60" as="geometry" />
        </mxCell>
        <mxCell id="gIhtm3OILwZ725tfP_vh-7" value="&lt;span&gt;Просмотр главной страницы сайта&lt;/span&gt;" style="ellipse;whiteSpace=wrap;html=1;" vertex="1" parent="1">
          <mxGeometry x="220" y="20" width="140" height="50" as="geometry" />
        </mxCell>
        <mxCell id="gIhtm3OILwZ725tfP_vh-8" value="•	Просмотр информации о сайте" style="ellipse;whiteSpace=wrap;html=1;" vertex="1" parent="1">
          <mxGeometry x="410" y="40" width="140" height="50" as="geometry" />
        </mxCell>
        <mxCell id="gIhtm3OILwZ725tfP_vh-9" value="Просмотр списка категорий" style="ellipse;whiteSpace=wrap;html=1;" vertex="1" parent="1">
          <mxGeometry x="420" y="95" width="140" height="50" as="geometry" />
        </mxCell>
        <mxCell id="gIhtm3OILwZ725tfP_vh-10" value="Регистрация в системе" style="ellipse;whiteSpace=wrap;html=1;" vertex="1" parent="1">
          <mxGeometry x="140" y="160" width="140" height="50" as="geometry" />
        </mxCell>
        <mxCell id="gIhtm3OILwZ725tfP_vh-11" value="Вход в систему" style="ellipse;whiteSpace=wrap;html=1;" vertex="1" parent="1">
          <mxGeometry x="280" y="140" width="140" height="50" as="geometry" />
        </mxCell>
        <mxCell id="gIhtm3OILwZ725tfP_vh-12" value="Редактирование профиля" style="ellipse;whiteSpace=wrap;html=1;" vertex="1" parent="1">
          <mxGeometry x="370" y="190" width="140" height="50" as="geometry" />
        </mxCell>
        <mxCell id="gIhtm3OILwZ725tfP_vh-13" value="Создание записи к врачу" style="ellipse;whiteSpace=wrap;html=1;" vertex="1" parent="1">
          <mxGeometry x="350" y="320" width="140" height="50" as="geometry" />
        </mxCell>
        <mxCell id="gIhtm3OILwZ725tfP_vh-14" value="Просмотр истории записей" style="ellipse;whiteSpace=wrap;html=1;" vertex="1" parent="1">
          <mxGeometry x="360" y="250" width="140" height="50" as="geometry" />
        </mxCell>
        <mxCell id="gIhtm3OILwZ725tfP_vh-15" value="Изменение информации записи" style="ellipse;whiteSpace=wrap;html=1;" vertex="1" parent="1">
          <mxGeometry x="350" y="390" width="140" height="50" as="geometry" />
        </mxCell>
        <mxCell id="gIhtm3OILwZ725tfP_vh-16" value="Просмотр списка записей" style="ellipse;whiteSpace=wrap;html=1;" vertex="1" parent="1">
          <mxGeometry x="180" y="340" width="140" height="50" as="geometry" />
        </mxCell>
        <mxCell id="gIhtm3OILwZ725tfP_vh-17" value="Изменение статуса записи" style="ellipse;whiteSpace=wrap;html=1;" vertex="1" parent="1">
          <mxGeometry x="340" y="450" width="140" height="50" as="geometry" />
        </mxCell>
        <mxCell id="gIhtm3OILwZ725tfP_vh-18" value="Просмотр списка пользователей/менеджеров" style="ellipse;whiteSpace=wrap;html=1;" vertex="1" parent="1">
          <mxGeometry x="170" y="520" width="140" height="50" as="geometry" />
        </mxCell>
        <mxCell id="gIhtm3OILwZ725tfP_vh-19" value="Добавление/изменение данных пользователей" style="ellipse;whiteSpace=wrap;html=1;" vertex="1" parent="1">
          <mxGeometry x="180" y="460" width="140" height="50" as="geometry" />
        </mxCell>
      </root>
    </mxGraphModel>
  </diagram>
</mxfile>
